<svg width="350" height="97" viewBox="0 0 350 97" fill="none" xmlns="http://www.w3.org/2000/svg">
<path d="M0 95.0001V1.9092H65.4545V22.2728H25.2727V38.2728H61.4545V58.6365H25.2727V95.0001H0Z" fill="#FF3902"/>
<path d="M81.15 95.0001V1.9092H148.241V22.2728H106.423V38.2728H144.786V58.6365H106.423V74.6365H148.059V95.0001H81.15Z" fill="#FF3902"/>
<path d="M349.257 48.4547C349.257 58.8183 347.242 67.5607 343.211 74.6819C339.181 81.7728 333.742 87.1516 326.893 90.8183C320.045 94.4547 312.408 96.2728 303.984 96.2728C295.499 96.2728 287.833 94.4395 280.984 90.7728C274.166 87.0759 268.742 81.6819 264.711 74.591C260.711 67.4698 258.711 58.7577 258.711 48.4547C258.711 38.091 260.711 29.3637 264.711 22.2728C268.742 15.1516 274.166 9.77284 280.984 6.13647C287.833 2.46981 295.499 0.636475 303.984 0.636475C312.408 0.636475 320.045 2.46981 326.893 6.13647C333.742 9.77284 339.181 15.1516 343.211 22.2728C347.242 29.3637 349.257 38.091 349.257 48.4547ZM323.257 48.4547C323.257 42.8789 322.514 38.1819 321.03 34.3638C319.575 30.5153 317.408 27.6062 314.53 25.6365C311.681 23.6365 308.166 22.6365 303.984 22.6365C299.802 22.6365 296.272 23.6365 293.393 25.6365C290.545 27.6062 288.378 30.5153 286.893 34.3638C285.439 38.1819 284.711 42.8789 284.711 48.4547C284.711 54.0304 285.439 58.7425 286.893 62.591C288.378 66.4092 290.545 69.3183 293.393 71.3183C296.272 73.288 299.802 74.2728 303.984 74.2728C308.166 74.2728 311.681 73.288 314.53 71.3183C317.408 69.3183 319.575 66.4092 321.03 62.591C322.514 58.7425 323.257 54.0304 323.257 48.4547Z" fill="#FF3902"/>
<path d="M241.818 25.7949L238.364 39.7813H176L179.455 25.7949H241.818ZM207.455 95L177.818 60.4883L178 46.6836H192.545C195.424 46.6836 197.758 46.0327 199.545 44.731C201.364 43.4292 202.697 41.7793 203.545 39.7813C204.424 37.7832 204.879 35.7246 204.909 33.6055C204.879 30.3359 203.955 27.5508 202.136 25.25C200.348 22.9492 197.152 21.7988 192.545 21.7988H176L180.182 2H192.545C200.515 2 207.212 3.12012 212.636 5.36036C218.091 7.57031 222.212 10.8398 225 15.1689C227.818 19.4678 229.242 24.7656 229.273 31.0625C229.242 36.542 228.5 41.2041 227.045 45.0488C225.591 48.8633 223.364 52.1177 220.364 54.812C217.364 57.5063 213.515 59.9131 208.818 62.0322L207.818 62.4863L233.636 94.0918V95H207.455ZM242 2L238.364 16.3496L185.636 16.5313L189.273 2H242Z" fill="#FF3902"/>
</svg>
