<svg width="350" height="96" viewBox="0 0 350 96" fill="none" xmlns="http://www.w3.org/2000/svg">
<path d="M0 94.3636V1.27273H65.4545V21.6364H25.2727V37.6364H61.4545V58H25.2727V94.3636H0Z" fill="#FF6467"/>
<path d="M81.15 94.3636V1.27273H148.241V21.6364H106.423V37.6364H144.786V58H106.423V74H148.059V94.3636H81.15Z" fill="#FF6467"/>
<path d="M349.257 47.8182C349.257 58.1818 347.242 66.9242 343.211 74.0455C339.181 81.1364 333.742 86.5152 326.893 90.1818C320.045 93.8182 312.408 95.6364 303.984 95.6364C295.499 95.6364 287.833 93.803 280.984 90.1364C274.166 86.4394 268.742 81.0455 264.711 73.9545C260.711 66.8333 258.711 58.1212 258.711 47.8182C258.711 37.4545 260.711 28.7273 264.711 21.6364C268.742 14.5152 274.166 9.13636 280.984 5.5C287.833 1.83333 295.499 0 303.984 0C312.408 0 320.045 1.83333 326.893 5.5C333.742 9.13636 339.181 14.5152 343.211 21.6364C347.242 28.7273 349.257 37.4545 349.257 47.8182ZM323.257 47.8182C323.257 42.2424 322.514 37.5455 321.03 33.7273C319.575 29.8788 317.408 26.9697 314.53 25C311.681 23 308.166 22 303.984 22C299.802 22 296.272 23 293.393 25C290.545 26.9697 288.378 29.8788 286.893 33.7273C285.439 37.5455 284.711 42.2424 284.711 47.8182C284.711 53.3939 285.439 58.1061 286.893 61.9545C288.378 65.7727 290.545 68.6818 293.393 70.6818C296.272 72.6515 299.802 73.6364 303.984 73.6364C308.166 73.6364 311.681 72.6515 314.53 70.6818C317.408 68.6818 319.575 65.7727 321.03 61.9545C322.514 58.1061 323.257 53.3939 323.257 47.8182Z" fill="#FF6467"/>
<path d="M241.818 25.1582L238.364 39.1445H176L179.455 25.1582H241.818ZM207.455 94.3633L177.818 59.8516L178 46.0469H192.545C195.424 46.0469 197.758 45.396 199.545 44.0942C201.364 42.7925 202.697 41.1426 203.545 39.1445C204.424 37.1465 204.879 35.0879 204.909 32.9688C204.879 29.6992 203.955 26.9141 202.136 24.6133C200.348 22.3125 197.152 21.1621 192.545 21.1621H176L180.182 1.36328H192.545C200.515 1.36328 207.212 2.4834 212.636 4.72364C218.091 6.93359 222.212 10.2031 225 14.5322C227.818 18.8311 229.242 24.1289 229.273 30.4258C229.242 35.9053 228.5 40.5674 227.045 44.4121C225.591 48.2266 223.364 51.481 220.364 54.1753C217.364 56.8696 213.515 59.2764 208.818 61.3955L207.818 61.8496L233.636 93.4551V94.3633H207.455ZM242 1.36328L238.364 15.7129L185.636 15.8945L189.273 1.36328H242Z" fill="#FF6467"/>
</svg>
