<svg width="180" height="180" viewBox="0 0 180 180" fill="none" xmlns="http://www.w3.org/2000/svg">
<circle cx="90" cy="90" r="90" fill="#FF8007"/>
<circle cx="89.5" cy="89.5" r="74.5" fill="white"/>
<path d="M125.215 65.1616L121.512 80.1541H54.6619L58.3649 65.1616H125.215ZM88.3793 139.345L56.6109 102.351L56.8058 87.553H72.3976C75.4835 87.553 77.9847 86.8553 79.9012 85.4599C81.8502 84.0645 83.2795 82.2959 84.189 80.1541C85.131 78.0123 85.6183 75.8056 85.6507 73.534C85.6183 70.0293 84.6275 67.0438 82.6785 64.5774C80.762 62.1111 77.3351 60.878 72.3976 60.878H54.6619L59.1445 39.6548H72.3976C80.9407 39.6548 88.1195 40.8555 93.9339 43.2569C99.7809 45.6258 104.199 49.1306 107.187 53.7711C110.208 58.3792 111.735 64.0582 111.767 70.8081C111.735 76.6818 110.939 81.6793 109.38 85.8007C107.82 89.8895 105.433 93.3781 102.217 96.2662C99.0013 99.1544 94.8759 101.734 89.8411 104.006L88.7691 104.493L116.445 138.372V139.345H88.3793ZM125.41 39.6548L121.512 55.0367L64.9915 55.2315L68.8895 39.6548H125.41Z" fill="#FF8007"/>
</svg>
